<svg id="Capa_1" data-name="Capa 1" xmlns="http://www.w3.org/2000/svg" viewBox="0 0 59.99 59.99"><defs><style>.cls-1{fill:#fff;}</style></defs><title>mute</title><path class="cls-1" d="M51.21,8.78a30,30,0,1,0,0,42.43A30,30,0,0,0,51.21,8.78Zm-41,1.41a28,28,0,0,1,38.87-.69L42,16.58V10.1a3.1,3.1,0,0,0-4.68-2.67,1,1,0,0,0-.17.13L23.91,19.88a1.1,1.1,0,0,1-.48.11H15.1A3.11,3.11,0,0,0,12,23.1V35.89A3.11,3.11,0,0,0,15.1,39h4.48L9.51,49.07a28,28,0,0,1,.69-38.87ZM21.59,37H15.1a1.11,1.11,0,0,1-1.1-1.1V23.1A1.11,1.11,0,0,1,15.1,22h8.32A3.1,3.1,0,0,0,25,21.56a.93.93,0,0,0,.18-.13L38.42,9.1a1.1,1.1,0,0,1,1.58,1v8.48ZM40,21.41V48.89a1.1,1.1,0,0,1-1.58,1L25.17,37.55a.93.93,0,0,0-.18-.13,3.07,3.07,0,0,0-.71-.3Zm9.8,28.39a28,28,0,0,1-38.87.69L22.41,39h1a1.1,1.1,0,0,1,.48.11L37.15,51.43a1,1,0,0,0,.17.13,3.07,3.07,0,0,0,3.12,0A3.07,3.07,0,0,0,42,48.89V19.41l8.49-8.49A28,28,0,0,1,49.8,49.79Z"/></svg>