<svg id="Capa_1" data-name="Capa 1" xmlns="http://www.w3.org/2000/svg" viewBox="0 0 60 60"><defs><style>.cls-1{fill:#fff;}</style></defs><title>play</title><path class="cls-1" d="M34.44,7.41a3.07,3.07,0,0,0-3.11,0,1,1,0,0,0-.17.13L17.91,19.89a1.1,1.1,0,0,1-.48.11H9.1A3.11,3.11,0,0,0,6,23.1V35.9A3.11,3.11,0,0,0,9.1,39h8.32a1.1,1.1,0,0,1,.48.11L31.15,51.44a1,1,0,0,0,.17.13,3.07,3.07,0,0,0,3.12,0A3.07,3.07,0,0,0,36,48.89V10.11A3.07,3.07,0,0,0,34.44,7.41ZM34,48.89a1.1,1.1,0,0,1-1.58,1L19.17,37.56a.93.93,0,0,0-.18-.13A3.1,3.1,0,0,0,17.43,37H9.1A1.1,1.1,0,0,1,8,35.9V23.1A1.1,1.1,0,0,1,9.1,22h8.32A3.1,3.1,0,0,0,19,21.57a.93.93,0,0,0,.18-.13L32.42,9.11a1.1,1.1,0,0,1,1.58,1Z"/><path class="cls-1" d="M43.25,17.29a1,1,0,0,0-1.41,1.41,16,16,0,0,1,0,22.63,1,1,0,1,0,1.41,1.41A18,18,0,0,0,43.25,17.29Z"/><path class="cls-1" d="M39.71,20.29a1,1,0,0,0-1.41,1.41,11,11,0,0,1,0,15.59,1,1,0,1,0,1.41,1.41A13,13,0,0,0,39.71,20.29Z"/><path class="cls-1" d="M46.18,12.29a1,1,0,1,0-1.41,1.41,23,23,0,0,1,0,32.59,1,1,0,1,0,1.41,1.41,25,25,0,0,0,0-35.41Z"/><path class="cls-1" d="M30,0A30,30,0,1,0,60,30,30,30,0,0,0,30,0Zm0,58A28,28,0,1,1,58,30,28,28,0,0,1,30,58Z"/></svg>